<?xml version="1.0" encoding="iso-8859-1"?>
<!-- Generator: Adobe Illustrator 18.0.0, SVG Export Plug-In . SVG Version: 6.00 Build 0)  -->
<!DOCTYPE svg PUBLIC "-//W3C//DTD SVG 1.1//EN" "http://www.w3.org/Graphics/SVG/1.1/DTD/svg11.dtd">
<svg xmlns="http://www.w3.org/2000/svg" xmlns:xlink="http://www.w3.org/1999/xlink" version="1.1" id="Capa_1" x="0px" y="0px" viewBox="0 0 59.482 59.482" style="enable-background:new 0 0 59.482 59.482;" xml:space="preserve" width="60px" height="60px">
<path d="M55.301,22.686c-0.774-1.203-1.206-3.811-1.11-5.398c0.225-3.707-1.745-7.388-4.789-8.95  c-0.587-0.302-1.115-0.454-1.581-0.588c-0.801-0.231-1.132-0.327-1.435-0.956c-1.284-2.667-2.7-3.612-5.412-3.612  c-0.397,0-0.828,0.018-1.32,0.049c-0.281,0-0.719-0.469-1.142-0.921c-0.741-0.793-1.731-1.852-3.301-2.032l-0.505-0.05  c-1.682,0-3.309,0.501-4.463,1.374c-0.268,0.202-0.586,0.375-1.007,0.006C28.352,0.83,26.933,0,25.606,0  c-0.458,0-0.868,0.099-1.229,0.299c-1.557,0.308-2.555,1.296-3.292,2.025c-0.49,0.485-0.913,0.904-1.279,0.904h-0.001  c-0.47-0.03-0.901-0.048-1.298-0.048c-2.712,0-4.128,0.945-5.413,3.612C13.053,6.878,13.008,6.933,12.965,7h0.776  c2.757,0,5,2.243,5,5c0,0.553-0.448,1-1,1s-1-0.447-1-1c0-1.654-1.346-3-3-3H9.02c-2.429,1.798-3.926,5.031-3.729,8.287  c0.096,1.588-0.336,4.195-1.11,5.398c-1.908,2.969-1.908,7.114,0,10.082c0.295,0.458,0.727,0.991,1.227,1.609  c0.477,0.589,1.121,1.389,1.614,2.136l1.901-2.698C10.345,31.448,12.909,30,15.741,30c3.309,0,6-2.691,6-6c0-0.553,0.448-1,1-1  s1,0.447,1,1c0,4.411-3.589,8-8,8c-2.125,0-4.048,1.087-5.144,2.906l-2.862,4.063c0.112,3.531,2.276,7.349,5.089,8.793  c0.545,0.28,0.637,0.563,0.843,1.42c0.023,0.093,0.048,0.194,0.073,0.296V49c0-3.859,3.14-7,7-7c0.552,0,1,0.447,1,1s-0.448,1-1,1  c-2.757,0-5,2.243-5,5v3.684c0.534,0.369,1.081,0.579,1.544,0.756c0.936,0.355,1.323,0.503,1.465,1.529  c0.39,2.826,2.064,4.514,4.478,4.514c2.15,0,4.476-1.453,5.925-3.702c0.177-0.274,0.471-0.305,0.588-0.305s0.411,0.03,0.588,0.305  c1.449,2.249,3.775,3.702,5.925,3.702c1.863,0,4.018-1.186,4.478-4.514c0.142-1.026,0.529-1.174,1.465-1.529  c0.942-0.359,2.233-0.85,3.057-2.561c0.305-0.634,0.447-1.224,0.561-1.697c0.207-0.856,0.298-1.14,0.843-1.42  c3.028-1.555,5.308-5.859,5.082-9.596c-0.051-0.844,1.443-2.688,2.335-3.789c0.5-0.618,0.932-1.151,1.227-1.609  C57.209,29.8,57.209,25.654,55.301,22.686z M24.93,40.136c0.391,0.391,0.391,1.023,0,1.414c-0.195,0.195-0.451,0.293-0.707,0.293  s-0.512-0.098-0.707-0.293c-1.279-1.279-1.984-2.979-1.984-4.785s0.705-3.506,1.984-4.785c0.391-0.391,1.023-0.391,1.414,0  s0.391,1.023,0,1.414c-0.901,0.901-1.398,2.099-1.398,3.371S24.029,39.234,24.93,40.136z M24.938,15.073  c-2.587-0.452-5.066,1.282-5.521,3.871c-0.577,3.281-3.44,5.598-6.662,5.598c-0.388,0-0.78-0.033-1.174-0.103  c-0.544-0.096-0.908-0.614-0.812-1.158s0.61-0.903,1.158-0.813c2.589,0.454,5.065-1.28,5.521-3.87  c0.645-3.675,4.157-6.134,7.836-5.496c0.544,0.096,0.908,0.614,0.812,1.158C26,14.804,25.483,15.162,24.938,15.073z M51.741,13.483  c0.552,0,1,0.448,1,1c0,0.552-0.448,1-1,1s-1-0.448-1-1C50.741,13.93,51.189,13.483,51.741,13.483z M33.741,37.483  c-0.552,0-1-0.448-1-1c0-0.552,0.448-1,1-1s1,0.448,1,1C34.741,37.035,34.294,37.483,33.741,37.483z M34.741,44.483  c0,0.552-0.448,1-1,1s-1-0.448-1-1c0-0.552,0.448-1,1-1S34.741,43.93,34.741,44.483z M45.741,29.483c-0.552,0-1-0.448-1-1  c0-0.552,0.448-1,1-1s1,0.448,1,1C46.741,29.035,46.294,29.483,45.741,29.483z M46.741,32.483c0,0.552-0.448,1-1,1s-1-0.448-1-1  c0-0.552,0.448-1,1-1S46.741,31.93,46.741,32.483z M45.741,25.483c-0.552,0-1-0.448-1-1c0-0.552,0.448-1,1-1s1,0.448,1,1  C46.741,25.035,46.294,25.483,45.741,25.483z M43.741,23.483c-0.552,0-1-0.448-1-1c0-0.552,0.448-1,1-1s1,0.448,1,1  C44.741,23.035,44.294,23.483,43.741,23.483z M45.741,21.483c-0.552,0-1-0.448-1-1c0-0.552,0.448-1,1-1s1,0.448,1,1  C46.741,21.035,46.294,21.483,45.741,21.483z M43.741,13.483c0.552,0,1,0.448,1,1c0,0.552-0.448,1-1,1s-1-0.448-1-1  C42.741,13.93,43.189,13.483,43.741,13.483z M42.741,10.483c0-0.552,0.448-1,1-1s1,0.448,1,1c0,0.552-0.448,1-1,1  S42.741,11.035,42.741,10.483z M41.741,13.483c-0.552,0-1-0.448-1-1c0-0.552,0.448-1,1-1s1,0.448,1,1  C42.741,13.035,42.294,13.483,41.741,13.483z M41.741,19.483c0.552,0,1,0.448,1,1c0,0.552-0.448,1-1,1s-1-0.448-1-1  C40.741,19.93,41.189,19.483,41.741,19.483z M37.741,21.483c-0.552,0-1-0.448-1-1c0-0.552,0.448-1,1-1s1,0.448,1,1  C38.741,21.035,38.294,21.483,37.741,21.483z M39.741,25.483c0.552,0,1,0.448,1,1c0,0.552-0.448,1-1,1s-1-0.448-1-1  C38.741,25.93,39.189,25.483,39.741,25.483z M37.741,27.483c0.552,0,1,0.448,1,1c0,0.552-0.448,1-1,1s-1-0.448-1-1  C36.741,27.93,37.189,27.483,37.741,27.483z M35.741,25.483c0.552,0,1,0.448,1,1c0,0.552-0.448,1-1,1s-1-0.448-1-1  C34.741,25.93,35.189,25.483,35.741,25.483z M34.741,22.483c0-0.552,0.448-1,1-1s1,0.448,1,1c0,0.552-0.448,1-1,1  S34.741,23.035,34.741,22.483z M35.741,29.483c0.552,0,1,0.448,1,1c0,0.552-0.448,1-1,1s-1-0.448-1-1  C34.741,29.93,35.189,29.483,35.741,29.483z M37.741,35.483c0.552,0,1,0.448,1,1c0,0.552-0.448,1-1,1s-1-0.448-1-1  C36.741,35.93,37.189,35.483,37.741,35.483z M39.741,31.483c-0.552,0-1-0.448-1-1c0-0.552,0.448-1,1-1s1,0.448,1,1  C40.741,31.035,40.294,31.483,39.741,31.483z M40.741,42.483c0,0.552-0.448,1-1,1s-1-0.448-1-1c0-0.552,0.448-1,1-1  S40.741,41.93,40.741,42.483z M41.741,31.483c0.552,0,1,0.448,1,1c0,0.552-0.448,1-1,1s-1-0.448-1-1  C40.741,31.93,41.189,31.483,41.741,31.483z M39.741,15.483c-0.552,0-1-0.448-1-1c0-0.552,0.448-1,1-1s1,0.448,1,1  C40.741,15.035,40.294,15.483,39.741,15.483z M37.741,11.483c0.552,0,1,0.448,1,1c0,0.552-0.448,1-1,1s-1-0.448-1-1  C36.741,11.93,37.189,11.483,37.741,11.483z M36.741,8.483c0-0.552,0.448-1,1-1s1,0.448,1,1c0,0.552-0.448,1-1,1  S36.741,9.035,36.741,8.483z M37.741,15.483c0.552,0,1,0.448,1,1c0,0.552-0.448,1-1,1s-1-0.448-1-1  C36.741,15.93,37.189,15.483,37.741,15.483z M35.741,15.483c-0.552,0-1-0.448-1-1c0-0.552,0.448-1,1-1s1,0.448,1,1  C36.741,15.035,36.294,15.483,35.741,15.483z M33.741,13.483c-0.552,0-1-0.448-1-1c0-0.552,0.448-1,1-1s1,0.448,1,1  C34.741,13.035,34.294,13.483,33.741,13.483z M33.741,15.483c0.552,0,1,0.448,1,1c0,0.552-0.448,1-1,1s-1-0.448-1-1  C32.741,15.93,33.189,15.483,33.741,15.483z M33.741,19.483c0.552,0,1,0.448,1,1c0,0.552-0.448,1-1,1s-1-0.448-1-1  C32.741,19.93,33.189,19.483,33.741,19.483z M33.741,23.483c0.552,0,1,0.448,1,1c0,0.552-0.448,1-1,1s-1-0.448-1-1  C32.741,23.93,33.189,23.483,33.741,23.483z M33.741,31.483c0.552,0,1,0.448,1,1c0,0.552-0.448,1-1,1s-1-0.448-1-1  C32.741,31.93,33.189,31.483,33.741,31.483z M35.741,41.483c0.552,0,1,0.448,1,1c0,0.552-0.448,1-1,1s-1-0.448-1-1  C34.741,41.93,35.189,41.483,35.741,41.483z M37.741,41.483c-0.552,0-1-0.448-1-1c0-0.552,0.448-1,1-1s1,0.448,1,1  C38.741,41.035,38.294,41.483,37.741,41.483z M38.741,52.483c0,0.552-0.448,1-1,1s-1-0.448-1-1c0-0.552,0.448-1,1-1  S38.741,51.93,38.741,52.483z M39.741,47.483c-0.552,0-1-0.448-1-1c0-0.552,0.448-1,1-1s1,0.448,1,1  C40.741,47.035,40.294,47.483,39.741,47.483z M40.741,50.483c0,0.552-0.448,1-1,1s-1-0.448-1-1c0-0.552,0.448-1,1-1  S40.741,49.93,40.741,50.483z M41.741,47.483c0.552,0,1,0.448,1,1c0,0.552-0.448,1-1,1s-1-0.448-1-1  C40.741,47.93,41.189,47.483,41.741,47.483z M41.741,37.483c-0.552,0-1-0.448-1-1c0-0.552,0.448-1,1-1s1,0.448,1,1  C42.741,37.035,42.294,37.483,41.741,37.483z M43.741,41.483c0.552,0,1,0.448,1,1c0,0.552-0.448,1-1,1s-1-0.448-1-1  C42.741,41.93,43.189,41.483,43.741,41.483z M43.741,27.483c-0.552,0-1-0.448-1-1c0-0.552,0.448-1,1-1s1,0.448,1,1  C44.741,27.035,44.294,27.483,43.741,27.483z M45.741,37.483c-0.552,0-1-0.448-1-1c0-0.552,0.448-1,1-1s1,0.448,1,1  C46.741,37.035,46.294,37.483,45.741,37.483z M46.741,40.483c0,0.552-0.448,1-1,1s-1-0.448-1-1c0-0.552,0.448-1,1-1  S46.741,39.93,46.741,40.483z M47.741,37.483c0.552,0,1,0.448,1,1c0,0.552-0.448,1-1,1s-1-0.448-1-1  C46.741,37.93,47.189,37.483,47.741,37.483z M47.741,23.483c-0.552,0-1-0.448-1-1c0-0.552,0.448-1,1-1s1,0.448,1,1  C48.741,23.035,48.294,23.483,47.741,23.483z M47.741,17.483c0.552,0,1,0.448,1,1c0,0.552-0.448,1-1,1s-1-0.448-1-1  C46.741,17.93,47.189,17.483,47.741,17.483z M46.741,14.483c0-0.552,0.448-1,1-1s1,0.448,1,1c0,0.552-0.448,1-1,1  S46.741,15.035,46.741,14.483z M49.741,29.483c-0.552,0-1-0.448-1-1c0-0.552,0.448-1,1-1s1,0.448,1,1  C50.741,29.035,50.294,29.483,49.741,29.483z M50.741,32.483c0,0.552-0.448,1-1,1s-1-0.448-1-1c0-0.552,0.448-1,1-1  S50.741,31.93,50.741,32.483z M49.741,17.483c-0.552,0-1-0.448-1-1c0-0.552,0.448-1,1-1s1,0.448,1,1  C50.741,17.035,50.294,17.483,49.741,17.483z M51.741,23.483c-0.552,0-1-0.448-1-1c0-0.552,0.448-1,1-1s1,0.448,1,1  C52.741,23.035,52.294,23.483,51.741,23.483z M52.741,26.483c0,0.552-0.448,1-1,1s-1-0.448-1-1c0-0.552,0.448-1,1-1  S52.741,25.93,52.741,26.483z M51.741,19.483c-0.552,0-1-0.448-1-1c0-0.552,0.448-1,1-1s1,0.448,1,1  C52.741,19.035,52.294,19.483,51.741,19.483z M49.741,11.483c0.552,0,1,0.448,1,1c0,0.552-0.448,1-1,1s-1-0.448-1-1  C48.741,11.93,49.189,11.483,49.741,11.483z M47.741,9.483c0.552,0,1,0.448,1,1c0,0.552-0.448,1-1,1s-1-0.448-1-1  C46.741,9.93,47.189,9.483,47.741,9.483z M45.741,7.483c0.552,0,1,0.448,1,1c0,0.552-0.448,1-1,1s-1-0.448-1-1  C44.741,7.93,45.189,7.483,45.741,7.483z M43.741,5.483c0.552,0,1,0.448,1,1c0,0.552-0.448,1-1,1s-1-0.448-1-1  C42.741,5.93,43.189,5.483,43.741,5.483z M41.741,3.483c0.552,0,1,0.448,1,1c0,0.552-0.448,1-1,1s-1-0.448-1-1  C40.741,3.93,41.189,3.483,41.741,3.483z M39.741,5.483c0.552,0,1,0.448,1,1c0,0.552-0.448,1-1,1s-1-0.448-1-1  C38.741,5.93,39.189,5.483,39.741,5.483z M37.741,3.483c0.552,0,1,0.448,1,1c0,0.552-0.448,1-1,1s-1-0.448-1-1  C36.741,3.93,37.189,3.483,37.741,3.483z M35.741,1.483c0.552,0,1,0.448,1,1c0,0.552-0.448,1-1,1s-1-0.448-1-1  C34.741,1.93,35.189,1.483,35.741,1.483z M33.741,3.483c0.552,0,1,0.448,1,1c0,0.552-0.448,1-1,1s-1-0.448-1-1  C32.741,3.93,33.189,3.483,33.741,3.483z M31.741,1.483c0.552,0,1,0.448,1,1c0,0.552-0.448,1-1,1s-1-0.448-1-1  C30.741,1.93,31.189,1.483,31.741,1.483z M31.741,5.483c0.552,0,1,0.448,1,1c0,0.552-0.448,1-1,1s-1-0.448-1-1  C30.741,5.93,31.189,5.483,31.741,5.483z M31.741,9.483c0.552,0,1,0.448,1,1c0,0.552-0.448,1-1,1s-1-0.448-1-1  C30.741,9.93,31.189,9.483,31.741,9.483z M31.741,17.483c0.552,0,1,0.448,1,1c0,0.552-0.448,1-1,1s-1-0.448-1-1  C30.741,17.93,31.189,17.483,31.741,17.483z M31.741,25.483c0.552,0,1,0.448,1,1c0,0.552-0.448,1-1,1s-1-0.448-1-1  C30.741,25.93,31.189,25.483,31.741,25.483z M31.741,29.483c0.552,0,1,0.448,1,1c0,0.552-0.448,1-1,1s-1-0.448-1-1  C30.741,29.93,31.189,29.483,31.741,29.483z M31.741,33.483c0.552,0,1,0.448,1,1c0,0.552-0.448,1-1,1s-1-0.448-1-1  C30.741,33.93,31.189,33.483,31.741,33.483z M31.741,37.483c0.552,0,1,0.448,1,1c0,0.552-0.448,1-1,1s-1-0.448-1-1  C30.741,37.93,31.189,37.483,31.741,37.483z M31.741,41.483c0.552,0,1,0.448,1,1c0,0.552-0.448,1-1,1s-1-0.448-1-1  C30.741,41.93,31.189,41.483,31.741,41.483z M31.741,45.483c0.552,0,1,0.448,1,1c0,0.552-0.448,1-1,1s-1-0.448-1-1  C30.741,45.93,31.189,45.483,31.741,45.483z M31.741,49.483c0.552,0,1,0.448,1,1c0,0.552-0.448,1-1,1s-1-0.448-1-1  C30.741,49.93,31.189,49.483,31.741,49.483z M31.741,55.483c-0.552,0-1-0.448-1-1c0-0.552,0.448-1,1-1s1,0.448,1,1  C32.741,55.035,32.294,55.483,31.741,55.483z M33.741,57.483c-0.552,0-1-0.448-1-1c0-0.552,0.448-1,1-1s1,0.448,1,1  C34.741,57.035,34.294,57.483,33.741,57.483z M33.741,53.483c-0.552,0-1-0.448-1-1c0-0.552,0.448-1,1-1s1,0.448,1,1  C34.741,53.035,34.294,53.483,33.741,53.483z M35.741,51.483c-0.552,0-1-0.448-1-1c0-0.552,0.448-1,1-1s1,0.448,1,1  C36.741,51.035,36.294,51.483,35.741,51.483z M37.741,57.483c-0.552,0-1-0.448-1-1c0-0.552,0.448-1,1-1s1,0.448,1,1  C38.741,57.035,38.294,57.483,37.741,57.483z M39.741,55.483c-0.552,0-1-0.448-1-1c0-0.552,0.448-1,1-1s1,0.448,1,1  C40.741,55.035,40.294,55.483,39.741,55.483z M41.741,53.483c-0.552,0-1-0.448-1-1c0-0.552,0.448-1,1-1s1,0.448,1,1  C42.741,53.035,42.294,53.483,41.741,53.483z M43.741,51.483c-0.552,0-1-0.448-1-1c0-0.552,0.448-1,1-1s1,0.448,1,1  C44.741,51.035,44.294,51.483,43.741,51.483z M43.741,47.483c-0.552,0-1-0.448-1-1c0-0.552,0.448-1,1-1s1,0.448,1,1  C44.741,47.035,44.294,47.483,43.741,47.483z M45.741,45.483c-0.552,0-1-0.448-1-1c0-0.552,0.448-1,1-1s1,0.448,1,1  C46.741,45.035,46.294,45.483,45.741,45.483z M47.741,43.483c-0.552,0-1-0.448-1-1c0-0.552,0.448-1,1-1s1,0.448,1,1  C48.741,43.035,48.294,43.483,47.741,43.483z M49.741,41.483c-0.552,0-1-0.448-1-1c0-0.552,0.448-1,1-1s1,0.448,1,1  C50.741,41.035,50.294,41.483,49.741,41.483z M49.741,37.483c-0.552,0-1-0.448-1-1c0-0.552,0.448-1,1-1s1,0.448,1,1  C50.741,37.035,50.294,37.483,49.741,37.483z M51.741,35.483c-0.552,0-1-0.448-1-1c0-0.552,0.448-1,1-1s1,0.448,1,1  C52.741,35.035,52.294,35.483,51.741,35.483z M53.741,33.483c-0.552,0-1-0.448-1-1c0-0.552,0.448-1,1-1s1,0.448,1,1  C54.741,33.035,54.294,33.483,53.741,33.483z M53.741,29.483c-0.552,0-1-0.448-1-1c0-0.552,0.448-1,1-1s1,0.448,1,1  C54.741,29.035,54.294,29.483,53.741,29.483z M53.741,25.483c-0.552,0-1-0.448-1-1c0-0.552,0.448-1,1-1s1,0.448,1,1  C54.741,25.035,54.294,25.483,53.741,25.483z" fill="#006DF0"/>
<g>
</g>
<g>
</g>
<g>
</g>
<g>
</g>
<g>
</g>
<g>
</g>
<g>
</g>
<g>
</g>
<g>
</g>
<g>
</g>
<g>
</g>
<g>
</g>
<g>
</g>
<g>
</g>
<g>
</g>
</svg>
