<?xml version="1.0" standalone="no"?>
<!DOCTYPE svg PUBLIC "-//W3C//DTD SVG 20010904//EN"
 "http://www.w3.org/TR/2001/REC-SVG-20010904/DTD/svg10.dtd">
<svg version="1.0" xmlns="http://www.w3.org/2000/svg"
 width="127.000000pt" height="122.000000pt" viewBox="0 0 127.000000 122.000000"
 preserveAspectRatio="xMidYMid meet">

<g transform="translate(0.000000,122.000000) scale(0.100000,-0.100000)"
fill="#000000" stroke="none">
<path d="M510 1174 c-106 -22 -204 -77 -285 -159 -231 -230 -231 -590 0 -820
230 -231 590 -231 820 0 231 230 231 590 0 820 -143 144 -338 202 -535 159z
m320 -274 c0 -19 -7 -20 -195 -20 -188 0 -195 1 -195 20 0 19 7 20 195 20 188
0 195 -1 195 -20z m-401 -314 c-4 -104 -6 -118 -27 -138 -25 -26 -89 -31 -116
-9 -21 18 -10 34 14 21 31 -17 68 -12 84 12 12 17 16 49 16 129 0 58 3 109 7
113 18 18 25 -22 22 -128z m157 14 c22 -49 41 -90 44 -90 3 0 23 42 44 93 44
102 54 119 67 111 13 -7 12 -284 -1 -284 -6 0 -10 40 -10 100 0 55 -4 100 -9
100 -4 0 -24 -36 -44 -80 -20 -44 -41 -80 -47 -80 -7 0 -28 36 -48 80 -20 44
-40 80 -44 80 -4 0 -8 -45 -8 -100 0 -60 -4 -100 -10 -100 -12 0 -14 272 -3
284 11 11 26 -15 69 -114z m274 -31 c0 -117 -2 -139 -15 -139 -13 0 -15 22
-15 138 0 76 3 142 6 145 18 18 24 -17 24 -144z m118 -5 c-2 -91 -7 -129 -15
-132 -10 -3 -13 29 -13 136 0 76 3 142 7 146 17 16 23 -32 21 -150z m-148
-259 c0 -13 -28 -15 -195 -15 -167 0 -195 2 -195 15 0 13 28 15 195 15 167 0
195 -2 195 -15z"/>
</g>
</svg>
